# xmcd
#
# Track frame offsets: 
#        180
#        11665
#        24798
#        43616
#        58343
#        69097
#        79644
#        92772
#        106151
#        117189
#        128873
#        142841
#        155628
#        172442
#
# Disc length: 2471 seconds
#
# Revision: 0
# Processed by: cddbd v1.5.1PL0 Copyright (c) Steve Scherf et al.
# Submitted via: ExactAudioCopy v0.90a11
#
DISCID=b209a50e
DTITLE=Adoniram Barbosa - Adoniram
DYEAR=1900
DGENRE=
TTITLE0=Samba do Arnesto
TTITLE1=Samba Italiano
TTITLE2=Saudosa Maloca
TTITLE3=Trem das Onze
TTITLE4=Prova de Carinho
TTITLE5=Pafunça
TTITLE6=Passeio do Adoniram
TTITLE7=Malvina
TTITLE8=Conselho de Mulher
TTITLE9=Iracema
TTITLE10=As Mariposas
TTITLE11=Tiro ao Álvaro
TTITLE12=Vila Esperança
TTITLE13=Abrigo de Vagabundos
EXTD=
EXTT0=
EXTT1=
EXTT2=
EXTT3=
EXTT4=
EXTT5=
EXTT6=
EXTT7=
EXTT8=
EXTT9=
EXTT10=
EXTT11=
EXTT12=
EXTT13=
PLAYORDER=
